<svg width="42" height="18" viewBox="0 0 42 18" fill="none" xmlns="http://www.w3.org/2000/svg">
<path d="M41 0.816406C41.5523 0.816406 42 1.26412 42 1.81641C42 2.36869 41.5523 2.81641 41 2.81641V0.816406ZM0 12.2539L9.74016 6.05206L10.241 17.5882L0 12.2539ZM41 2.81641C34.9686 2.81641 31.1973 3.3236 28.6371 4.07885C26.1172 4.82224 24.7369 5.81499 23.4896 6.88741C22.2351 7.96606 20.9675 9.28023 18.8638 10.3802C16.7437 11.4887 13.8091 12.3764 9.09412 12.8583L8.89079 10.8686C13.4492 10.4028 16.1143 9.56083 17.9371 8.6078C19.7762 7.64622 20.7945 6.56709 22.1857 5.37091C23.5841 4.16849 25.2093 3.00486 28.0712 2.16058C30.893 1.32816 34.88 0.816406 41 0.816406V2.81641Z" fill="#1890FF"/>
</svg>
