<svg width="181" height="37" viewBox="0 0 181 37" fill="none" xmlns="http://www.w3.org/2000/svg">
<path d="M0 8.97406L5.05081 19.3578L11.518 9.79181L0 8.97406ZM179.953 2.48493C180.504 2.5111 180.973 2.08509 180.999 1.53343C181.025 0.981765 180.599 0.513341 180.047 0.487176L179.953 2.48493ZM6.90575 14.8497C28.3709 28.9261 43.628 34.9649 56.0632 36.0654C68.5468 37.1703 78.0511 33.2855 87.9341 27.8689C97.8402 22.4397 108.048 15.5317 122.242 10.2304C136.392 4.94537 154.485 1.277 179.953 2.48493L180.047 0.487176C154.324 -0.732855 135.96 2.97179 121.542 8.35678C107.169 13.7254 96.699 20.7844 86.9728 26.1151C77.2235 31.4584 68.1411 35.1265 56.2395 34.0732C44.2896 33.0156 29.3632 27.1852 8.00251 13.1773L6.90575 14.8497Z" fill="#1890FF"/>
</svg>
