<svg width="127" height="102" viewBox="0 0 127 102" fill="none" xmlns="http://www.w3.org/2000/svg">
<path d="M1.00003 0.253906C0.447745 0.25389 1.65218e-05 0.701592 4.47438e-10 1.25388C-1.65209e-05 1.80616 0.447685 2.25389 0.99997 2.25391L1.00003 0.253906ZM127 96.2539L117.127 90.2657L116.878 101.81L127 96.2539ZM0.99997 2.25391C8.7069 2.25414 14.5735 3.6396 19.1725 6.02141C23.7655 8.40013 27.158 11.8055 29.8704 15.9483C32.5914 20.1044 34.6227 24.994 36.4864 30.3299C37.4174 32.9958 38.3018 35.758 39.2103 38.5882C40.1174 41.4141 41.0478 44.3053 42.0653 47.2081C46.1356 58.8199 51.6357 70.731 62.9219 80.016C74.2129 89.305 91.1687 95.8655 117.958 97.0585L118.047 95.0604C91.5406 93.88 75.0494 87.4034 64.1925 78.4715C53.3309 69.5358 47.9824 58.0425 43.9527 46.5465C42.9452 43.6724 42.0225 40.8052 41.1146 37.9769C40.2081 35.1528 39.3156 32.3649 38.3745 29.6705C36.4938 24.2858 34.399 19.214 31.5436 14.8528C28.6796 10.4783 25.0453 6.81061 20.0922 4.24545C15.1451 1.68337 8.94642 0.254144 1.00003 0.253906L0.99997 2.25391Z" fill="#1890FF"/>
</svg>
