<svg width="65" height="25" viewBox="0 0 65 25" fill="none" xmlns="http://www.w3.org/2000/svg">
<path d="M0 6.7536L10.3834 11.8053L9.56654 0.287179L0 6.7536ZM63.5 24.2539C64.0523 24.2539 64.5 23.8062 64.5 23.2539C64.5 22.7016 64.0523 22.2539 63.5 22.2539V24.2539ZM9.02578 7.11568C19.0444 6.67557 24.5416 7.53498 27.8833 8.96774C31.1482 10.3676 32.4346 12.3393 33.9774 14.5881C35.5582 16.8925 37.3554 19.3882 41.6491 21.2455C45.87 23.0712 52.4344 24.2539 63.5 24.2539V22.2539C52.5286 22.2539 46.2893 21.0735 42.4431 19.4098C38.6697 17.7776 37.1365 15.6576 35.6266 13.4567C34.0787 11.2003 32.5143 8.77724 28.6714 7.12957C24.9052 5.5148 19.0377 4.67394 8.93801 5.11761L9.02578 7.11568Z" fill="#1890FF"/>
</svg>
