<svg width="167" height="504" viewBox="0 0 167 504" fill="none" xmlns="http://www.w3.org/2000/svg">
<path fill-rule="evenodd" clip-rule="evenodd" d="M128.546 38.0633C129.339 39.1931 129.067 40.7524 127.937 41.546C125.821 43.0318 123.8 44.5835 121.871 46.1935C120.811 47.0782 119.234 46.9361 118.349 45.8761C117.465 44.8161 117.607 43.2396 118.667 42.3549C120.702 40.6562 122.834 39.0201 125.063 37.4544C126.193 36.6608 127.752 36.9334 128.546 38.0633ZM110.759 53.3893C111.811 54.2836 111.939 55.8613 111.045 56.9133C107.676 60.8764 104.739 65.0428 102.227 69.3346C101.53 70.5262 99.9983 70.9269 98.8066 70.2294C97.615 69.532 97.2144 68.0006 97.9119 66.809C100.569 62.2683 103.675 57.8631 107.235 53.675C108.129 52.623 109.707 52.4951 110.759 53.3893ZM94.2497 79.8956C95.5467 80.3691 96.2143 81.8043 95.7409 83.1013C93.9584 87.9841 92.6766 92.9161 91.8854 97.795C91.6643 99.1579 90.3803 100.084 89.0174 99.8625C87.6545 99.6415 86.7288 98.3575 86.9498 96.9946C87.7923 91.8 89.1548 86.562 91.044 81.3868C91.5175 80.0898 92.9528 79.4222 94.2497 79.8956ZM88.3852 110.53C89.7642 110.462 90.9375 111.524 91.0058 112.903C91.2628 118.095 92.1167 123.075 93.5461 127.705C93.9533 129.025 93.2139 130.424 91.8946 130.831C90.5754 131.239 89.1757 130.499 88.7685 129.18C87.2074 124.123 86.288 118.728 86.0119 113.151C85.9436 111.772 87.0062 110.598 88.3852 110.53ZM96.5135 140.468C97.6439 139.676 99.203 139.949 99.9958 141.08C101.42 143.111 103.007 144.997 104.755 146.72C106.365 148.307 107.971 149.896 109.568 151.488C110.546 152.463 110.548 154.046 109.574 155.024C108.599 156.002 107.016 156.004 106.038 155.03C104.449 153.446 102.85 151.863 101.245 150.281C99.2748 148.339 97.4936 146.22 95.9022 143.951C95.1094 142.82 95.3831 141.261 96.5135 140.468ZM115.561 161.091C116.555 160.132 118.137 160.161 119.096 161.155C122.273 164.449 125.383 167.759 128.39 171.089C129.315 172.114 129.235 173.695 128.21 174.62C127.185 175.546 125.604 175.465 124.679 174.44C121.716 171.159 118.644 167.889 115.497 164.626C114.538 163.632 114.567 162.049 115.561 161.091ZM133.78 181.07C134.849 180.195 136.424 180.353 137.298 181.422C140.24 185.018 143.028 188.645 145.619 192.307C146.417 193.434 146.15 194.994 145.023 195.792C143.896 196.59 142.336 196.323 141.538 195.196C139.023 191.642 136.307 188.108 133.428 184.588C132.554 183.519 132.712 181.944 133.78 181.07ZM149.636 202.967C150.835 202.283 152.362 202.7 153.047 203.899C155.379 207.986 157.428 212.128 159.135 216.33C159.655 217.61 159.039 219.068 157.759 219.587C156.48 220.107 155.022 219.491 154.502 218.212C152.889 214.24 150.941 210.297 148.704 206.378C148.02 205.178 148.437 203.652 149.636 202.967ZM160.31 227.715C161.66 227.425 162.99 228.284 163.28 229.634C164.262 234.204 164.794 238.846 164.81 243.564C164.814 244.944 163.698 246.067 162.318 246.072C160.937 246.076 159.814 244.96 159.81 243.58C159.796 239.231 159.305 234.936 158.391 230.685C158.101 229.335 158.961 228.005 160.31 227.715ZM161.413 254.558C162.762 254.851 163.619 256.181 163.327 257.531C162.378 261.91 160.961 266.338 159.034 270.819C158.489 272.087 157.018 272.673 155.75 272.128C154.482 271.583 153.896 270.112 154.441 268.844C156.246 264.646 157.563 260.524 158.44 256.473C158.732 255.123 160.063 254.266 161.413 254.558ZM151.75 279.649C152.919 280.384 153.27 281.927 152.535 283.096C150.203 286.805 147.513 290.551 144.446 294.335C143.577 295.408 142.002 295.573 140.93 294.703C139.857 293.834 139.692 292.26 140.562 291.187C143.513 287.545 146.085 283.962 148.303 280.434C149.038 279.266 150.581 278.914 151.75 279.649ZM135.292 301.006C136.281 301.969 136.302 303.552 135.339 304.541C132.287 307.674 128.972 310.837 125.383 314.031C124.351 314.949 122.771 314.857 121.853 313.825C120.936 312.793 121.028 311.213 122.059 310.295C125.566 307.175 128.794 304.094 131.757 301.053C132.72 300.064 134.303 300.043 135.292 301.006ZM115.371 319.257C116.229 320.338 116.049 321.911 114.967 322.769C113.201 324.172 111.381 325.58 109.507 326.995C107.697 328.363 105.906 329.713 104.136 331.046C103.033 331.877 101.465 331.656 100.635 330.553C99.8041 329.45 100.025 327.883 101.128 327.052C102.897 325.72 104.686 324.371 106.494 323.005C108.337 321.614 110.125 320.23 111.858 318.853C112.94 317.995 114.512 318.176 115.371 319.257ZM93.8914 335.626C94.7216 336.729 94.5003 338.296 93.3971 339.127C89.724 341.891 86.1513 344.582 82.6807 347.21C81.58 348.044 80.0119 347.827 79.1785 346.726C78.345 345.626 78.5617 344.057 79.6624 343.224C83.1391 340.592 86.7166 337.896 90.3906 335.131C91.4939 334.301 93.0612 334.523 93.8914 335.626ZM72.4759 351.834C73.3178 352.928 73.1131 354.498 72.0188 355.34C68.3642 358.151 64.8446 360.891 61.4631 363.569C60.3807 364.426 58.8084 364.244 57.9511 363.162C57.0938 362.079 57.2762 360.507 58.3585 359.65C61.7627 356.953 65.3016 354.199 68.97 351.377C70.0644 350.535 71.634 350.74 72.4759 351.834ZM51.3974 368.463C52.2799 369.525 52.1345 371.102 51.0727 371.984C47.5069 374.948 44.1348 377.843 40.9614 380.686C39.9332 381.608 38.3526 381.521 37.4312 380.493C36.5097 379.465 36.5963 377.884 37.6246 376.963C40.8523 374.07 44.2724 371.134 47.8768 368.139C48.9387 367.256 50.5149 367.402 51.3974 368.463ZM31.2995 386.278C32.2789 387.251 32.284 388.834 31.3108 389.813C28.0411 393.104 25.0703 396.341 22.4049 399.554C21.5232 400.616 19.9471 400.763 18.8845 399.881C17.822 399 17.6753 397.424 18.5569 396.361C21.333 393.015 24.4073 389.667 27.7639 386.289C28.7371 385.31 30.32 385.305 31.2995 386.278ZM13.9103 406.68C15.0831 407.409 15.443 408.95 14.7143 410.123C12.3329 413.956 10.4073 417.79 8.94448 421.677C8.45815 422.969 7.01635 423.623 5.72412 423.136C4.43189 422.65 3.77858 421.208 4.26491 419.916C5.85603 415.688 7.93426 411.561 10.4674 407.484C11.1961 406.311 12.7376 405.951 13.9103 406.68ZM3.69812 431.316C5.0689 431.482 6.04616 432.727 5.88088 434.098C5.62805 436.195 5.50004 438.326 5.5 440.5C5.49995 443.038 5.71888 445.442 6.1354 447.72C6.38375 449.078 5.48404 450.38 4.12585 450.629C2.76766 450.877 1.4653 449.977 1.21695 448.619C0.74393 446.032 0.499948 443.327 0.5 440.5C0.500044 438.129 0.639707 435.798 0.916829 433.499C1.08211 432.128 2.32733 431.151 3.69812 431.316ZM7.99775 460.228C9.14723 459.463 10.6991 459.775 11.464 460.924C14.0636 464.831 17.4505 468.291 21.4877 471.346C22.5887 472.179 22.8057 473.747 21.9725 474.848C21.1393 475.949 19.5714 476.166 18.4704 475.333C14.0591 471.995 10.2588 468.138 7.30142 463.694C6.53652 462.544 6.84828 460.993 7.99775 460.228ZM30.9457 480.054C31.5188 478.798 33.0016 478.244 34.2578 478.817C38.6367 480.815 43.367 482.527 48.3395 483.983C49.6646 484.371 50.4242 485.76 50.0362 487.085C49.6482 488.41 48.2594 489.169 46.9344 488.781C41.7723 487.27 36.8131 485.478 32.1826 483.366C30.9264 482.793 30.3727 481.31 30.9457 480.054ZM60.1352 489.459C60.389 488.102 61.6949 487.207 63.0521 487.461C67.9874 488.384 73.0245 489.109 78.0707 489.662C79.4432 489.813 80.4337 491.047 80.2831 492.42C80.1326 493.792 78.8979 494.783 77.5254 494.632C72.3691 494.067 67.2063 493.324 62.1332 492.376C60.776 492.122 59.8815 490.816 60.1352 489.459ZM133.99 492.26C134.122 493.635 133.115 494.856 131.741 494.989C129.308 495.223 126.724 495.43 124.013 495.602C122.635 495.69 121.447 494.643 121.36 493.265C121.273 491.887 122.319 490.7 123.697 490.612C126.355 490.444 128.885 490.241 131.261 490.012C132.636 489.879 133.857 490.886 133.99 492.26ZM90.6259 493.22C90.6916 491.841 91.8628 490.776 93.242 490.841C98.4562 491.09 103.57 491.179 108.473 491.143C109.854 491.133 110.981 492.244 110.992 493.624C111.002 495.005 109.891 496.133 108.51 496.143C103.521 496.18 98.3156 496.089 93.0042 495.836C91.625 495.77 90.5602 494.599 90.6259 493.22Z" fill="#1890FF"/>
<path d="M124 325C124 332.18 118.18 338 111 338C103.82 338 98 332.18 98 325C98 317.82 103.82 312 111 312C118.18 312 124 317.82 124 325Z" fill="#1890FF"/>
<path d="M119 325C119 329.418 115.418 333 111 333C106.582 333 103 329.418 103 325C103 320.582 106.582 317 111 317C115.418 317 119 320.582 119 325Z" fill="#73D13D"/>
<rect x="123" y="1" width="42" height="42" rx="9" fill="#212A33"/>
<mask id="mask0_11493_14416" style="mask-type:alpha" maskUnits="userSpaceOnUse" x="132" y="11" width="24" height="22">
<path d="M142.137 12.1083C142.965 10.6306 145.035 10.6306 145.863 12.1083L155.709 29.6751C156.537 31.1528 155.501 33 153.845 33H134.155C132.499 33 131.463 31.1528 132.291 29.6751L142.137 12.1083Z" fill="#BAE7FF"/>
</mask>
<g mask="url(#mask0_11493_14416)">
<path d="M142.137 12.1083C142.965 10.6306 145.035 10.6306 145.863 12.1083L155.709 29.6751C156.537 31.1528 155.501 33 153.845 33H134.155C132.499 33 131.463 31.1528 132.291 29.6751L142.137 12.1083Z" fill="#BAE7FF"/>
<path d="M149.451 13.67C149.841 13.2678 150.508 13.4518 150.651 14.0012L157.979 42.1763C158.122 42.7257 157.634 43.2284 157.101 43.0812L129.751 35.5317C129.217 35.3845 129.039 34.6977 129.429 34.2956L149.451 13.67Z" fill="#69C0FF"/>
<path d="M153.661 19.147C154.139 18.8626 154.737 19.2181 154.737 19.7868V48.9558C154.737 49.5246 154.139 49.8801 153.661 49.5957L129.14 35.0112C128.662 34.7268 128.662 34.0159 129.14 33.7315L153.661 19.147Z" fill="#40A9FF"/>
<path d="M158.447 25.0689C158.98 24.9217 159.468 25.4245 159.325 25.9739L151.577 55.7611C151.435 56.3105 150.768 56.4945 150.378 56.0923L129.211 34.2865C128.82 33.8844 128.999 33.1976 129.532 33.0504L158.447 25.0689Z" fill="#096DD9"/>
</g>
<rect x="123" y="1" width="42" height="42" rx="9" stroke="#1890FF" stroke-width="2"/>
<path d="M145 491C145 498.18 139.18 504 132 504C124.82 504 119 498.18 119 491C119 483.82 124.82 478 132 478C139.18 478 145 483.82 145 491Z" fill="#1890FF"/>
<path d="M140 491C140 495.418 136.418 499 132 499C127.582 499 124 495.418 124 491C124 486.582 127.582 483 132 483C136.418 483 140 486.582 140 491Z" fill="white"/>
<path d="M143 178C143 185.18 137.18 191 130 191C122.82 191 117 185.18 117 178C117 170.82 122.82 165 130 165C137.18 165 143 170.82 143 178Z" fill="#1890FF"/>
<path d="M138 178C138 182.418 134.418 186 130 186C125.582 186 122 182.418 122 178C122 173.582 125.582 170 130 170C134.418 170 138 173.582 138 178Z" fill="white"/>
<path d="M167 275C167 282.18 161.18 288 154 288C146.82 288 141 282.18 141 275C141 267.82 146.82 262 154 262C161.18 262 167 267.82 167 275Z" fill="#1890FF"/>
<path d="M162 275C162 279.418 158.418 283 154 283C149.582 283 146 279.418 146 275C146 270.582 149.582 267 154 267C158.418 267 162 270.582 162 275Z" fill="white"/>
</svg>
