<svg width="4rem" height="4rem" viewBox="0 0 64 64" fill="none" xmlns="http://www.w3.org/2000/svg">
<g clip-path="url(#clip0_11565_5266)">
<path d="M64 32C64 49.6731 49.6731 64 32 64C14.3269 64 0 49.6731 0 32C0 14.3269 14.3269 0 32 0C49.6731 0 64 14.3269 64 32Z" fill="url(#paint0_radial_11565_5266)"/>
<path fill-rule="evenodd" clip-rule="evenodd" d="M9.96094 32.331C9.96094 20.0498 19.5865 10.9531 32 10.9531C44.4135 10.9531 54.0391 20.0553 54.0391 32.3366C54.0391 44.6178 44.4135 53.7145 32 53.7145C29.7686 53.7145 27.6308 53.4169 25.6197 52.866C25.2285 52.7613 24.8098 52.7888 24.4406 52.9541L20.0659 54.8825C18.9198 55.3894 17.6305 54.574 17.592 53.3233L17.4708 49.4003C17.4597 48.9155 17.2393 48.4637 16.8812 48.1441C12.5946 44.3093 9.96094 38.7554 9.96094 32.331ZM25.2385 28.3143L18.7645 38.5845C18.1419 39.5708 19.354 40.6782 20.2797 39.973L27.233 34.6946C27.7013 34.3365 28.3515 34.3365 28.8253 34.6891L33.9769 38.5515C35.5252 39.7085 37.7291 39.3063 38.7594 37.6699L45.2389 27.4052C45.856 26.419 44.6438 25.306 43.7182 26.0112L36.7649 31.2896C36.2965 31.6477 35.6464 31.6477 35.1726 31.2951L30.0209 27.4328C28.4727 26.2757 26.2688 26.6779 25.2385 28.3143Z" fill="white"/>
</g>
<defs>
<radialGradient id="paint0_radial_11565_5266" cx="0" cy="0" r="1" gradientUnits="userSpaceOnUse" gradientTransform="translate(12.32 63.6565) scale(69.7344 69.7282)">
<stop stop-color="#0099FF"/>
<stop offset="0.6098" stop-color="#A033FF"/>
<stop offset="0.9348" stop-color="#FF5280"/>
<stop offset="1" stop-color="#FF7061"/>
</radialGradient>
<clipPath id="clip0_11565_5266">
<rect width="4rem" height="4rem" fill="white"/>
</clipPath>
</defs>
</svg>
