<svg aria-hidden="true" style="position: absolute; width: 0; height: 0; overflow: hidden;" version="1.1" xmlns="http://www.w3.org/2000/svg" xmlns:xlink="http://www.w3.org/1999/xlink">
<defs>
<symbol id="add" viewBox="0 0 32 32">
<path fill="#1890ff" style="fill: var(--color1, #1890ff)" d="M17.066 6.4c0-0.589-0.478-1.067-1.067-1.067s-1.067 0.478-1.067 1.067v8.534h-8.532c-0.589 0-1.067 0.478-1.067 1.067s0.478 1.067 1.067 1.067h8.532v8.533c0 0.589 0.478 1.067 1.067 1.067s1.067-0.478 1.067-1.067v-8.533h8.534c0.589 0 1.067-0.478 1.067-1.067s-0.478-1.067-1.067-1.067h-8.534v-8.534z"></path>
</symbol>
<symbol id="link" viewBox="0 0 32 32">
<path d="M21.338 2.667c-0.736 0-1.333 0.597-1.333 1.333s0.597 1.333 1.333 1.333h3.448l-8.781 8.781c-0.521 0.521-0.521 1.365 0 1.886s1.365 0.521 1.886 0l8.781-8.781v3.448c0 0.736 0.597 1.333 1.333 1.333s1.333-0.597 1.333-1.333v-6.667c0-0.736-0.597-1.333-1.333-1.333h-6.667z"></path>
<path d="M11.906 5.333h2.761c0.736 0 1.333 0.597 1.333 1.333s-0.597 1.333-1.333 1.333h-2.667c-1.923 0-3.232 0.003-4.211 0.135-0.941 0.127-1.377 0.35-1.674 0.646s-0.52 0.733-0.646 1.674c-0.132 0.98-0.135 2.288-0.135 4.211v5.333c0 1.923 0.003 3.232 0.135 4.211 0.127 0.941 0.35 1.377 0.646 1.674s0.733 0.52 1.674 0.647c0.98 0.132 2.288 0.135 4.211 0.135h5.333c1.923 0 3.232-0.003 4.211-0.135 0.941-0.127 1.377-0.35 1.674-0.647s0.52-0.733 0.647-1.674c0.132-0.98 0.135-2.288 0.135-4.211v-2.667c0-0.736 0.597-1.333 1.333-1.333s1.333 0.597 1.333 1.333v2.761c0 1.806 0 3.294-0.158 4.473-0.166 1.237-0.529 2.33-1.404 3.204s-1.967 1.237-3.204 1.404c-1.178 0.158-2.667 0.158-4.473 0.158h-5.521c-1.806 0-3.294 0-4.473-0.158-1.237-0.166-2.33-0.529-3.204-1.404s-1.237-1.967-1.404-3.204c-0.158-1.178-0.158-2.667-0.158-4.473v-5.522c-0-1.805-0-3.294 0.158-4.473 0.166-1.237 0.529-2.33 1.404-3.204s1.967-1.237 3.204-1.404c1.178-0.158 2.667-0.158 4.473-0.158z"></path>
</symbol>
<symbol id="fb-messenger" viewBox="0 0 64 64">
<g clip-path="url(#clip0_11565_5266)">
<path d="M64 32C64 49.6731 49.6731 64 32 64C14.3269 64 0 49.6731 0 32C0 14.3269 14.3269 0 32 0C49.6731 0 64 14.3269 64 32Z" fill="url(#paint0_radial_11565_5266)"/>
<path fill-rule="evenodd" clip-rule="evenodd" d="M9.96094 32.331C9.96094 20.0498 19.5865 10.9531 32 10.9531C44.4135 10.9531 54.0391 20.0553 54.0391 32.3366C54.0391 44.6178 44.4135 53.7145 32 53.7145C29.7686 53.7145 27.6308 53.4169 25.6197 52.866C25.2285 52.7613 24.8098 52.7888 24.4406 52.9541L20.0659 54.8825C18.9198 55.3894 17.6305 54.574 17.592 53.3233L17.4708 49.4003C17.4597 48.9155 17.2393 48.4637 16.8812 48.1441C12.5946 44.3093 9.96094 38.7554 9.96094 32.331ZM25.2385 28.3143L18.7645 38.5845C18.1419 39.5708 19.354 40.6782 20.2797 39.973L27.233 34.6946C27.7013 34.3365 28.3515 34.3365 28.8253 34.6891L33.9769 38.5515C35.5252 39.7085 37.7291 39.3063 38.7594 37.6699L45.2389 27.4052C45.856 26.419 44.6438 25.306 43.7182 26.0112L36.7649 31.2896C36.2965 31.6477 35.6464 31.6477 35.1726 31.2951L30.0209 27.4328C28.4727 26.2757 26.2688 26.6779 25.2385 28.3143Z" fill="white"/>
</g>
<defs>
<radialGradient id="paint0_radial_11565_5266" cx="0" cy="0" r="1" gradientUnits="userSpaceOnUse" gradientTransform="translate(12.32 63.6565) scale(69.7344 69.7282)">
<stop stop-color="#0099FF"/>
<stop offset="0.6098" stop-color="#A033FF"/>
<stop offset="0.9348" stop-color="#FF5280"/>
<stop offset="1" stop-color="#FF7061"/>
</radialGradient>
<clipPath id="clip0_11565_5266">
<rect width="64" height="64" fill="white"/>
</clipPath>
</defs>
</symbol>
<symbol id="google" viewBox="0 0 32 32">
<path fill="#fff" style="fill: var(--color5, #fff)" d="M32 16c0 8.837-7.163 16-16 16s-16-7.163-16-16c0-8.837 7.163-16 16-16s16 7.163 16 16z"></path>
<path fill="#4285f4" style="fill: var(--color6, #4285f4)" d="M25.871 16.237c0-0.737-0.066-1.447-0.189-2.127h-9.795v4.023h5.597c-0.241 1.3-0.974 2.401-2.075 3.139v2.609h3.361c1.966-1.811 3.101-4.477 3.101-7.644z"></path>
<path fill="#34a853" style="fill: var(--color7, #34a853)" d="M15.888 26.401c2.808 0 5.162-0.931 6.883-2.52l-3.361-2.609c-0.931 0.624-2.123 0.993-3.522 0.993-2.709 0-5.001-1.829-5.819-4.288h-3.475v2.695c1.711 3.399 5.228 5.729 9.294 5.729z"></path>
<path fill="#fbbc05" style="fill: var(--color8, #fbbc05)" d="M10.069 17.979c-0.208-0.624-0.326-1.291-0.326-1.976s0.118-1.352 0.326-1.976v-2.695h-3.475c-0.704 1.404-1.106 2.992-1.106 4.671s0.402 3.267 1.106 4.671l3.475-2.695z"></path>
<path fill="#ea4335" style="fill: var(--color9, #ea4335)" d="M15.888 9.738c1.527 0 2.898 0.525 3.976 1.555l2.983-2.983c-1.801-1.678-4.155-2.709-6.959-2.709-4.065 0-7.583 2.331-9.294 5.729l3.475 2.695c0.818-2.458 3.111-4.288 5.819-4.288z"></path>
</symbol>
<symbol id="medium" viewBox="0 0 32 32">
<path fill="#000" style="fill: var(--color4, #000)" d="M32 16c0 8.837-7.163 16-16 16s-16-7.163-16-16c0-8.837 7.163-16 16-16s16 7.163 16 16z"></path>
<path fill="#fff" style="fill: var(--color5, #fff)" d="M17.51 16.305c0 3.702-2.975 6.703-6.646 6.703s-6.646-3.002-6.646-6.703c0-3.701 2.975-6.704 6.646-6.704s6.646 3.001 6.646 6.704z"></path>
<path fill="#fff" style="fill: var(--color5, #fff)" d="M24.802 16.303c0 3.485-1.488 6.311-3.323 6.311s-3.323-2.826-3.323-6.311c0-3.485 1.488-6.311 3.323-6.311s3.323 2.825 3.323 6.311z"></path>
<path fill="#fff" style="fill: var(--color5, #fff)" d="M27.782 16.306c0 3.122-0.523 5.654-1.169 5.654s-1.168-2.531-1.168-5.654c0-3.122 0.523-5.654 1.168-5.654s1.169 2.531 1.169 5.654z"></path>
</symbol>
<symbol id="reddit" viewBox="0 0 32 32">
<path fill="#ff4500" style="fill: var(--color3, #ff4500)" d="M32 16c0 8.837-7.163 16-16 16s-16-7.163-16-16c0-8.837 7.163-16 16-16s16 7.163 16 16z"></path>
<path fill="#fff" style="fill: var(--color5, #fff)" d="M26.667 15.999c0-1.291-1.048-2.339-2.339-2.339-0.636 0-1.198 0.243-1.609 0.655-1.591-1.142-3.799-1.89-6.232-1.984l1.067-4.997 3.462 0.73c0.037 0.88 0.767 1.591 1.666 1.591 0.917 0 1.666-0.748 1.666-1.665s-0.749-1.665-1.666-1.665c-0.655 0-1.216 0.374-1.478 0.936l-3.874-0.823c-0.112-0.019-0.225 0-0.318 0.056s-0.15 0.15-0.187 0.262l-1.179 5.577c-2.489 0.075-4.716 0.805-6.325 1.984-0.412-0.393-0.992-0.655-1.609-0.655-1.291 0-2.339 1.048-2.339 2.339 0 0.954 0.561 1.759 1.385 2.133-0.037 0.225-0.056 0.468-0.056 0.711 0 3.593 4.173 6.494 9.338 6.494s9.338-2.901 9.338-6.494c0-0.243-0.019-0.468-0.056-0.692 0.767-0.374 1.347-1.198 1.347-2.152zM10.667 17.665c0-0.917 0.749-1.665 1.665-1.665s1.665 0.749 1.665 1.665c0 0.917-0.749 1.666-1.665 1.666s-1.665-0.748-1.665-1.666zM19.968 22.062c-1.142 1.142-3.312 1.216-3.949 1.216s-2.826-0.094-3.949-1.216c-0.168-0.168-0.168-0.449 0-0.618s0.449-0.168 0.618 0c0.711 0.711 2.246 0.973 3.35 0.973s2.62-0.262 3.35-0.973c0.168-0.168 0.449-0.168 0.618 0 0.131 0.187 0.131 0.449-0.037 0.618zM19.668 19.33c-0.917 0-1.666-0.748-1.666-1.666s0.749-1.665 1.666-1.665c0.917 0 1.666 0.749 1.666 1.665s-0.748 1.666-1.666 1.666z"></path>
</symbol>
<symbol id="snapchat" viewBox="0 0 32 32">
<path fill="#fffc00" style="fill: var(--color10, #fffc00)" d="M32 16c0 8.837-7.163 16-16 16s-16-7.163-16-16c0-8.837 7.163-16 16-16s16 7.163 16 16z"></path>
<path fill="#fff" style="fill: var(--color5, #fff)" d="M21.216 19.193c-1.953-0.945-2.264-2.405-2.278-2.513-0.017-0.131-0.036-0.234 0.109-0.368 0.14-0.129 0.758-0.512 0.93-0.632 0.284-0.198 0.409-0.397 0.317-0.64-0.064-0.168-0.221-0.232-0.387-0.232-0.052 0-0.104 0.006-0.155 0.017-0.312 0.068-0.615 0.224-0.79 0.266-0.021 0.005-0.043 0.008-0.064 0.009-0.093 0-0.129-0.042-0.12-0.154 0.022-0.341 0.068-1.006 0.015-1.628-0.074-0.855-0.35-1.279-0.677-1.653-0.158-0.182-0.893-0.962-2.31-0.962s-2.151 0.781-2.308 0.96c-0.328 0.375-0.603 0.798-0.677 1.653-0.054 0.621-0.005 1.286 0.014 1.628 0.006 0.107-0.026 0.154-0.12 0.154-0.022-0-0.043-0.003-0.064-0.009-0.175-0.042-0.478-0.198-0.79-0.266-0.051-0.011-0.103-0.017-0.155-0.017-0.166 0-0.322 0.064-0.387 0.232-0.092 0.244 0.032 0.442 0.317 0.64 0.172 0.12 0.791 0.503 0.93 0.632 0.144 0.133 0.126 0.236 0.109 0.368-0.014 0.11-0.325 1.569-2.278 2.513-0.114 0.055-0.309 0.173 0.034 0.362 0.539 0.298 0.897 0.266 1.176 0.445 0.236 0.152 0.097 0.481 0.269 0.6 0.211 0.146 0.836-0.010 1.643 0.256 0.677 0.223 1.088 0.853 2.287 0.853s1.623-0.633 2.287-0.853c0.805-0.266 1.431-0.11 1.643-0.256 0.172-0.119 0.032-0.447 0.269-0.6 0.279-0.179 0.637-0.148 1.176-0.445 0.342-0.187 0.148-0.304 0.034-0.36z"></path>
<path fill="#000" style="fill: var(--color4, #000)" d="M22.065 19.083c-0.088-0.238-0.255-0.366-0.445-0.472-0.036-0.021-0.069-0.038-0.097-0.051-0.057-0.029-0.115-0.058-0.172-0.088-0.592-0.314-1.055-0.71-1.376-1.18-0.091-0.132-0.17-0.272-0.236-0.419-0.027-0.078-0.026-0.123-0.006-0.163 0.020-0.031 0.045-0.058 0.076-0.079 0.102-0.067 0.207-0.136 0.278-0.182 0.127-0.082 0.227-0.147 0.292-0.193 0.243-0.17 0.413-0.351 0.52-0.553 0.074-0.14 0.117-0.293 0.127-0.451s-0.015-0.316-0.072-0.463c-0.161-0.424-0.562-0.687-1.047-0.687-0.102-0-0.204 0.011-0.304 0.032-0.027 0.006-0.053 0.012-0.080 0.019 0.005-0.29-0.002-0.596-0.028-0.897-0.091-1.059-0.462-1.614-0.849-2.057-0.248-0.277-0.539-0.512-0.863-0.695-0.587-0.335-1.252-0.505-1.977-0.505s-1.387 0.17-1.975 0.505c-0.325 0.183-0.617 0.418-0.865 0.696-0.387 0.443-0.757 0.999-0.849 2.057-0.026 0.301-0.032 0.609-0.028 0.897-0.026-0.007-0.053-0.013-0.079-0.019-0.1-0.022-0.202-0.032-0.304-0.032-0.486 0-0.887 0.263-1.047 0.687-0.057 0.147-0.082 0.306-0.073 0.463s0.052 0.312 0.126 0.452c0.107 0.202 0.277 0.383 0.52 0.553 0.064 0.045 0.165 0.11 0.292 0.193 0.069 0.044 0.169 0.11 0.267 0.175 0.034 0.022 0.064 0.052 0.086 0.086 0.021 0.042 0.021 0.088-0.009 0.171-0.065 0.143-0.143 0.281-0.232 0.41-0.314 0.459-0.763 0.848-1.336 1.16-0.304 0.161-0.62 0.269-0.753 0.631-0.101 0.273-0.035 0.585 0.221 0.847 0.094 0.098 0.203 0.18 0.322 0.244 0.249 0.137 0.514 0.243 0.788 0.315 0.057 0.015 0.11 0.039 0.159 0.071 0.093 0.081 0.080 0.204 0.204 0.384 0.062 0.093 0.141 0.173 0.233 0.237 0.26 0.18 0.553 0.191 0.863 0.203 0.28 0.011 0.597 0.023 0.96 0.142 0.15 0.050 0.306 0.146 0.487 0.258 0.434 0.267 1.028 0.632 2.022 0.632s1.593-0.367 2.030-0.635c0.179-0.11 0.334-0.205 0.48-0.254 0.362-0.12 0.68-0.132 0.96-0.142 0.31-0.012 0.602-0.023 0.863-0.203 0.109-0.076 0.199-0.175 0.265-0.29 0.089-0.152 0.087-0.258 0.171-0.332 0.046-0.031 0.096-0.054 0.149-0.068 0.278-0.073 0.547-0.18 0.799-0.318 0.127-0.068 0.242-0.158 0.338-0.265l0.003-0.004c0.24-0.256 0.3-0.559 0.202-0.825zM21.181 19.558c-0.539 0.298-0.897 0.266-1.176 0.445-0.237 0.152-0.097 0.481-0.269 0.6-0.211 0.146-0.836-0.010-1.643 0.256-0.666 0.22-1.090 0.853-2.287 0.853s-1.612-0.631-2.288-0.854c-0.805-0.266-1.431-0.11-1.643-0.256-0.172-0.119-0.032-0.447-0.269-0.6-0.279-0.179-0.637-0.148-1.176-0.444-0.343-0.189-0.149-0.307-0.034-0.362 1.952-0.945 2.264-2.405 2.278-2.513 0.017-0.131 0.035-0.234-0.109-0.368-0.139-0.129-0.758-0.512-0.93-0.632-0.284-0.198-0.409-0.397-0.317-0.64 0.064-0.168 0.222-0.232 0.387-0.232 0.052 0 0.104 0.006 0.155 0.017 0.312 0.068 0.615 0.224 0.79 0.266 0.021 0.005 0.043 0.008 0.064 0.009 0.093 0 0.126-0.047 0.12-0.154-0.020-0.341-0.068-1.006-0.014-1.628 0.074-0.855 0.349-1.279 0.677-1.653 0.157-0.18 0.896-0.961 2.309-0.961s2.153 0.777 2.311 0.957c0.328 0.375 0.603 0.798 0.677 1.653 0.054 0.621 0.007 1.287-0.015 1.628-0.007 0.112 0.026 0.154 0.12 0.154 0.022-0 0.043-0.003 0.064-0.009 0.175-0.042 0.478-0.198 0.79-0.266 0.051-0.011 0.103-0.017 0.155-0.017 0.166 0 0.322 0.064 0.387 0.232 0.092 0.244-0.032 0.442-0.317 0.64-0.172 0.12-0.791 0.503-0.93 0.632-0.145 0.133-0.126 0.236-0.109 0.368 0.014 0.11 0.325 1.569 2.278 2.513 0.115 0.058 0.31 0.175-0.033 0.366z"></path>
</symbol>
<symbol id="spotify" viewBox="0 0 32 32">
<path fill="#1ed760" style="fill: var(--color11, #1ed760)" d="M32 16c0 8.837-7.163 16-16 16s-16-7.163-16-16c0-8.837 7.163-16 16-16s16 7.163 16 16z"></path>
<path fill="#fff" style="fill: var(--color5, #fff)" d="M16.002 5.602c-5.744 0-10.4 4.656-10.4 10.4s4.656 10.4 10.4 10.4c5.744 0 10.4-4.656 10.4-10.4s-4.656-10.4-10.4-10.4zM21.076 20.594c-0.167 0.296-0.474 0.462-0.791 0.462-0.148 0-0.301-0.037-0.441-0.115-1.298-0.728-2.713-1.174-4.209-1.325-1.499-0.15-2.978 0.002-4.399 0.456-0.474 0.151-0.985-0.111-1.136-0.586-0.153-0.476 0.11-0.985 0.586-1.137 1.658-0.53 3.386-0.71 5.132-0.532 1.743 0.177 3.394 0.697 4.91 1.547 0.436 0.243 0.593 0.794 0.348 1.23zM22.32 17.435c-0.161 0.309-0.476 0.487-0.802 0.487-0.142 0-0.284-0.032-0.418-0.103-1.596-0.831-3.32-1.346-5.128-1.53-1.822-0.186-3.626-0.024-5.365 0.478-0.481 0.137-0.982-0.138-1.119-0.619-0.139-0.48 0.139-0.981 0.618-1.119 1.963-0.566 3.999-0.748 6.049-0.54 2.036 0.207 3.98 0.787 5.781 1.726 0.441 0.231 0.615 0.777 0.383 1.219zM22.771 14.807c-0.136 0-0.273-0.031-0.403-0.095-1.894-0.944-3.932-1.533-6.057-1.748-2.129-0.218-4.247-0.050-6.297 0.498-0.482 0.128-0.977-0.158-1.106-0.641s0.158-0.978 0.641-1.107c2.261-0.604 4.6-0.788 6.946-0.549 2.343 0.237 4.59 0.886 6.68 1.929 0.448 0.223 0.629 0.766 0.407 1.213-0.158 0.318-0.477 0.501-0.81 0.501z"></path>
</symbol>
</defs>
</svg>
