<svg width="120" height="40" viewBox="0 0 120 40" fill="none" xmlns="http://www.w3.org/2000/svg">
    <rect width="40" height="40" rx="8" fill="#212A33"/>
    <mask id="mask0" mask-type="alpha" maskUnits="userSpaceOnUse" x="8" y="9" width="24" height="22">
        <path d="M18.1366 10.1083C18.9647 8.63056 21.0352 8.63056 21.8634 10.1083L31.7085 27.6751C32.5367 29.1528 31.5015 31 29.8451 31H10.1549C8.49853 31 7.46329 29.1528 8.29148 27.6751L18.1366 10.1083Z" fill="#BAE7FF"/>
    </mask>
    <g mask="url(#mask0)">
        <path d="M18.1366 10.1083C18.9647 8.63056 21.0352 8.63056 21.8634 10.1083L31.7085 27.6751C32.5367 29.1528 31.5015 31 29.8451 31H10.1549C8.49853 31 7.46329 29.1528 8.29148 27.6751L18.1366 10.1083Z" fill="#BAE7FF"/>
        <path d="M25.4462 11.6685C25.8366 11.2663 26.5032 11.4504 26.6462 11.9998L33.9745 40.1748C34.1173 40.7242 33.6293 41.227 33.0961 41.0797L5.7463 33.5303C5.21299 33.3831 5.03437 32.6963 5.42478 32.2941L25.4462 11.6685Z" fill="#69C0FF"/>
        <path d="M29.662 17.1489C30.1402 16.8645 30.7379 17.22 30.7379 17.7888V46.9577C30.7379 47.5265 30.1402 47.882 29.662 47.5976L5.14093 33.0131C4.66278 32.7287 4.66278 32.0178 5.14094 31.7334L29.662 17.1489Z" fill="#40A9FF"/>
        <path d="M34.4514 23.0671C34.9847 22.9199 35.4727 23.4226 35.3298 23.972L27.5821 53.7592C27.4393 54.3086 26.7726 54.4926 26.3822 54.0904L5.21518 32.2847C4.82477 31.8825 5.0034 31.1957 5.53671 31.0486L34.4514 23.0671Z" fill="#096DD9"/>
    </g>
    <path d="M52.1222 13.9091H50.4602L55.267 27H56.9034L61.7102 13.9091H60.0483L56.1619 24.929H56.0085L52.1222 13.9091ZM64.4243 13.9091L69.1544 21.6051V27H70.7396V21.6051L75.4697 13.9091H73.6544L70.0237 20.0199H69.8703L66.2396 13.9091H64.4243ZM79.32 13.9091V27H80.8029V17.054H80.9308L85.0217 27H86.4535L90.5444 17.054H90.6723V27H92.1552V13.9091H90.2632L85.8143 24.7756H85.6609L81.212 13.9091H79.32ZM97.1337 27H105.137V25.5938H98.7189V21.1449H104.625V19.7386H98.7189V15.3153H105.034V13.9091H97.1337V27ZM110.459 13.9091H108.592L112.811 20.4545L108.592 27H110.459L113.834 21.6562H113.936L117.311 27H119.177L115.061 20.4545L119.177 13.9091H117.311L113.936 19.3551H113.834L110.459 13.9091Z" fill="white"/>
</svg>
